<svg width="15" height="13" viewBox="0 0 15 13" fill="none" xmlns="http://www.w3.org/2000/svg">
<path fill-rule="evenodd" clip-rule="evenodd" d="M7.35001 1.7245C8.10211 0.842986 9.25441 0.285156 10.455 0.285156C12.5802 0.285156 14.25 1.95176 14.25 4.07289C14.25 6.67396 11.9079 8.79375 8.35925 12.0055L8.35051 12.0134L7.35001 12.9224L6.34951 12.0203L6.32227 11.9955C2.78402 8.78638 0.450005 6.66944 0.450005 4.07289C0.450005 1.95176 2.1198 0.285156 4.24501 0.285156C5.44561 0.285156 6.59791 0.842986 7.35001 1.7245ZM7.35001 11.063L7.41901 10.9941C10.7034 8.02591 12.87 6.06318 12.87 4.07289C12.87 2.69553 11.835 1.66252 10.455 1.66252C9.39241 1.66252 8.3574 2.34431 7.9986 3.2878H6.70831C6.34261 2.34431 5.3076 1.66252 4.24501 1.66252C2.86501 1.66252 1.83001 2.69553 1.83001 4.07289C1.83001 6.06318 3.9966 8.02591 7.281 10.9941L7.35001 11.063Z" fill="#18C6AC"/>
</svg>
