<svg width="15" height="13" xmlns="http://www.w3.org/2000/svg" fill="#18C6AC">
 <g>
  <title>Layer 1</title>
  <path id="svg_1" fill="#18C6AC" d="m7.35001,1.7245c0.7521,-0.88151 1.9044,-1.43934 3.10499,-1.43934c2.1252,0 3.795,1.6666 3.795,3.78773c0,2.60107 -2.3421,4.72086 -5.89075,7.93261l-0.00874,0.0079l-1.0005,0.909l-1.0005,-0.9021l-0.02724,-0.0248c-3.53825,-3.20912 -5.87227,-5.32606 -5.87227,-7.92261c0,-2.12113 1.6698,-3.78773 3.79501,-3.78773c1.2006,0 2.3529,0.55783 3.105,1.43934zm0,9.3385l0.069,-0.0689c3.28439,-2.96819 5.45099,-4.93092 5.45099,-6.92121c0,-1.37736 -1.035,-2.41037 -2.415,-2.41037c-1.06259,0 -2.0976,0.68179 -2.4564,1.62528l-1.29029,0c-0.3657,-0.94349 -1.40071,-1.62528 -2.4633,-1.62528c-1.38,0 -2.415,1.03301 -2.415,2.41037c0,1.99029 2.16659,3.95302 5.45099,6.92121l0.06901,0.0689z" clip-rule="evenodd" fill-rule="evenodd"/>
  <path id="svg_2" fill="#18C6AC" d="m1.70344,5.57159l5.6925,6.19813l0.5175,-1.033l1.5525,-1.03306l1.5525,-1.54953l1.55249,-1.54952l0.5175,-1.54953l0,-2.06604l-0.5175,-1.03302l-1.55249,-0.51651l-1.5525,0l-0.5175,0.51651l-1.5525,0l-2.07,-0.51651l-1.035,-0.51651l-2.07,1.03302l-1.035,1.54953l0.5175,2.06604z"/>
 </g>
</svg>