<svg width="16" height="14" viewBox="0 0 16 14" fill="none" xmlns="http://www.w3.org/2000/svg">
<path d="M8.73499 10.75L14.735 10.75" stroke="#99ABA9" stroke-width="1.5" stroke-linecap="round" stroke-linejoin="round"/>
<path d="M1.23499 10.75L4.23499 10.75" stroke="#99ABA9" stroke-width="1.5" stroke-linecap="round" stroke-linejoin="round"/>
<path fill-rule="evenodd" clip-rule="evenodd" d="M6.48499 13C5.24234 13 4.23499 11.9926 4.23499 10.75C4.23499 9.50736 5.24234 8.5 6.48499 8.5C7.72763 8.5 8.73499 9.50736 8.73499 10.75C8.73499 11.9926 7.72763 13 6.48499 13Z" stroke="#99ABA9" stroke-width="1.5" stroke-linecap="round" stroke-linejoin="round"/>
<path d="M10.235 3.25L1.23499 3.25" stroke="#99ABA9" stroke-width="1.5" stroke-linecap="round" stroke-linejoin="round"/>
<path fill-rule="evenodd" clip-rule="evenodd" d="M12.485 5.5C13.7276 5.5 14.735 4.49264 14.735 3.25C14.735 2.00736 13.7276 1 12.485 1C11.2423 1 10.235 2.00736 10.235 3.25C10.235 3.84674 10.472 4.41903 10.894 4.84099C11.316 5.26295 11.8882 5.5 12.485 5.5V5.5Z" stroke="#99ABA9" stroke-width="1.5" stroke-linecap="round" stroke-linejoin="round"/>
</svg>
